<?xml version="1.0" standalone="no"?>
<!DOCTYPE svg PUBLIC "-//W3C//DTD SVG 20010904//EN"
 "http://www.w3.org/TR/2001/REC-SVG-20010904/DTD/svg10.dtd">
<svg version="1.0" xmlns="http://www.w3.org/2000/svg"
 width="512.000000pt" height="512.000000pt" viewBox="0 0 512.000000 512.000000"
 preserveAspectRatio="xMidYMid meet">

<g transform="translate(0.000000,512.000000) scale(0.100000,-0.100000)"
fill="#000000" stroke="none">
<path d="M1515 4960 c-4 -7 9 -29 34 -54 l41 -42 -40 -39 c-40 -39 -51 -65
-27 -65 7 0 28 16 47 35 19 19 39 35 45 35 6 0 26 -16 45 -35 31 -32 60 -45
60 -28 0 4 -19 27 -42 50 l-42 43 44 45 c34 35 41 48 32 57 -9 9 -22 2 -57
-32 l-45 -44 -44 43 c-29 29 -46 39 -51 31z"/>
<path d="M368 4763 c-66 -41 -62 -150 7 -181 47 -22 84 -15 121 22 47 47 47
95 0 142 -39 39 -83 45 -128 17z m86 -24 c13 -7 30 -24 36 -40 24 -58 -37
-117 -95 -91 -54 25 -57 103 -5 129 31 16 33 16 64 2z"/>
<path d="M3349 4731 c-16 -16 -29 -37 -29 -45 0 -14 -34 -16 -303 -16 -246 0
-307 -3 -323 -14 -18 -14 -19 -32 -24 -313 l-5 -298 -30 -5 c-40 -7 -38 -24 3
-28 l32 -3 0 -254 c0 -234 1 -255 19 -276 l19 -24 426 -3 c234 -2 426 -6 426
-10 0 -4 -7 -46 -16 -94 l-16 -88 -974 0 c-1066 0 -1015 3 -1067 -59 l-27 -33
0 -479 c0 -273 -4 -479 -9 -479 -5 0 -28 9 -52 20 -28 12 -47 16 -53 10 -14
-14 2 -28 60 -49 l49 -19 3 -207 c1 -114 -1 -205 -5 -203 -150 75 -144 73
-243 73 -86 0 -101 -3 -162 -32 -84 -40 -151 -107 -192 -193 -28 -59 -31 -74
-31 -160 0 -82 4 -103 27 -152 l26 -56 -29 -12 c-33 -14 -89 -74 -89 -95 0
-20 -10 -19 -67 7 -39 17 -68 22 -148 22 -92 1 -105 -2 -165 -30 -251 -119
-303 -455 -99 -638 243 -219 626 -65 647 259 6 91 -10 158 -54 232 l-35 57 56
55 c48 49 57 54 73 43 9 -7 46 -27 82 -45 60 -29 73 -32 161 -32 89 0 100 2
166 35 l70 35 7 -89 c3 -49 6 -250 6 -447 l0 -357 27 -33 c53 -62 -4 -59 1123
-59 1119 0 1069 -2 1122 55 l26 27 64 -25 c96 -39 153 -50 263 -50 120 -1 198
17 310 73 180 88 309 246 362 441 12 45 17 99 17 184 0 102 -5 132 -27 200
-30 90 -84 187 -138 248 l-36 41 34 73 c31 67 35 93 14 93 -4 0 -22 -31 -41
-70 l-33 -69 -47 34 c-204 149 -473 176 -712 71 -17 -8 -18 30 -18 718 l0 726
23 -4 c12 -3 123 -24 247 -46 124 -23 295 -54 381 -71 216 -41 242 -39 264 15
l13 31 7 -38 c8 -40 21 -55 36 -40 5 5 0 40 -12 84 l-21 75 85 464 c99 538 93
498 84 531 -9 33 -32 43 -177 69 -169 30 -160 27 -160 56 0 15 -12 38 -29 55
-23 23 -38 29 -72 29 -35 0 -47 -6 -75 -36 l-34 -36 -203 38 c-111 20 -212 41
-224 45 -23 8 -23 9 -23 249 0 227 -1 241 -20 260 -18 18 -33 20 -180 20 -132
0 -160 3 -160 14 0 8 -12 28 -26 45 -22 26 -33 31 -71 31 -36 0 -50 -6 -74
-29z m121 -21 c29 -29 26 -74 -6 -99 -15 -12 -34 -21 -44 -21 -10 0 -29 9 -44
21 -50 40 -21 119 44 119 17 0 39 -9 50 -20z m-146 -97 c5 -11 -5 -28 -29 -53
-61 -62 -38 -86 25 -25 33 33 37 34 71 24 30 -9 43 -8 73 6 21 10 43 29 49 42
10 23 12 23 168 23 134 0 158 -2 163 -16 11 -28 7 -1084 -4 -1105 -10 -18 -27
-19 -560 -19 -485 0 -550 2 -564 16 -14 14 -16 77 -16 550 0 350 4 542 10 555
10 18 24 19 309 19 270 0 299 -2 305 -17z m782 -548 c104 -19 199 -37 212 -40
36 -9 27 -41 -23 -75 -25 -17 -45 -35 -45 -40 0 -22 23 -19 64 9 43 30 45 30
81 15 46 -19 90 -11 122 24 l23 25 133 -23 c165 -29 177 -33 177 -62 -1 -48
-198 -1080 -208 -1090 -9 -9 -122 9 -439 68 l-428 80 -5 100 c-4 74 -10 107
-25 133 -26 44 -78 71 -136 71 l-46 0 18 93 c10 50 19 93 19 95 0 1 60 2 133
2 120 0 164 -6 477 -64 320 -60 386 -67 355 -37 -8 7 -431 90 -651 128 l-31 5
5 97 c2 53 6 98 8 100 3 3 292 -49 637 -114 59 -11 69 -11 74 1 3 8 4 16 2 18
-2 2 -130 27 -284 55 -154 29 -312 59 -352 67 -40 7 -75 14 -78 14 -3 0 -5 86
-5 190 0 154 3 190 14 190 7 0 98 -16 202 -35z m378 14 c50 -40 21 -119 -44
-119 -65 0 -94 79 -44 119 15 12 34 21 44 21 10 0 29 -9 44 -21z m-839 -859
c22 -5 50 -21 63 -35 l22 -26 0 -858 0 -857 -60 -42 c-114 -81 -217 -234 -256
-382 -10 -38 -17 -105 -18 -162 l-1 -98 -565 0 c-336 0 -571 -4 -580 -10 -42
-26 21 -30 579 -32 l573 -3 22 -70 c12 -39 38 -99 56 -133 37 -70 136 -183
199 -226 23 -16 41 -33 41 -38 0 -5 -12 -20 -26 -33 l-27 -25 -1056 0 c-985 0
-1057 2 -1077 18 -12 9 -27 27 -33 39 -8 16 -11 420 -11 1460 0 1412 0 1439
20 1470 11 19 31 35 47 39 15 3 33 7 38 9 25 8 2014 4 2050 -5z m-2325 -1432
c19 -6 41 -15 48 -21 7 -5 27 -17 45 -27 l32 -17 3 -271 2 -270 -47 -30 c-109
-68 -236 -76 -348 -22 -54 26 -139 111 -164 164 -67 137 -39 299 69 406 94 95
229 127 360 88z m2880 -292 c206 -38 381 -168 471 -351 58 -118 72 -186 67
-324 -3 -86 -10 -133 -27 -181 -89 -259 -318 -433 -587 -447 -198 -11 -359 51
-500 191 -140 140 -201 300 -192 500 8 173 68 306 194 431 153 153 363 219
574 181z m-3292 -305 c5 -16 -94 -114 -110 -109 -32 11 5 87 55 112 35 17 49
16 55 -3z m-220 -86 c73 -33 143 -103 179 -181 23 -50 28 -72 28 -144 0 -105
-29 -175 -102 -248 -69 -69 -129 -94 -233 -100 -107 -5 -176 18 -249 84 -79
71 -113 142 -119 244 -5 90 6 137 50 210 90 149 284 208 446 135z"/>
<path d="M2876 4251 c-18 -28 28 -31 410 -29 338 3 389 5 389 18 0 13 -52 15
-397 18 -227 1 -399 -2 -402 -7z"/>
<path d="M2876 4015 c-3 -9 0 -18 7 -20 6 -3 188 -4 402 -3 339 3 390 5 390
18 0 13 -52 15 -396 18 -351 2 -397 0 -403 -13z"/>
<path d="M2877 3783 c-4 -3 -2 -12 4 -20 9 -10 86 -13 393 -13 209 0 387 4
395 9 42 27 -8 31 -393 31 -216 0 -396 -3 -399 -7z"/>
<path d="M3744 3259 c-9 -15 5 -28 39 -34 18 -3 189 -35 381 -70 191 -36 352
-62 357 -59 14 9 10 22 -8 28 -19 6 -193 39 -533 101 -107 19 -203 37 -212 39
-10 2 -21 0 -24 -5z"/>
<path d="M1980 2755 c0 -13 77 -15 630 -15 553 0 630 2 630 15 0 13 -77 15
-630 15 -553 0 -630 -2 -630 -15z"/>
<path d="M1815 2386 c-68 -29 -103 -101 -93 -191 18 -158 244 -200 326 -60 18
33 22 51 20 101 -4 72 -35 121 -91 148 -42 19 -120 20 -162 2z m141 -32 c107
-51 107 -202 0 -253 -23 -12 -51 -21 -61 -21 -10 0 -38 9 -61 21 -53 25 -90
91 -81 145 16 97 115 150 203 108z"/>
<path d="M2244 2329 c-3 -6 -2 -15 3 -20 5 -5 261 -8 628 -7 581 3 620 4 623
21 3 16 -32 17 -622 17 -439 0 -627 -3 -632 -11z"/>
<path d="M2247 2144 c-4 -4 -4 -11 -1 -15 3 -5 181 -9 395 -9 308 0 390 3 387
13 -4 9 -92 13 -390 15 -211 1 -387 -1 -391 -4z"/>
<path d="M1830 1864 c-74 -32 -110 -86 -110 -164 0 -191 247 -248 336 -78 18
35 18 121 0 156 -19 37 -55 68 -98 87 -46 19 -83 19 -128 -1z m141 -47 c45
-30 71 -82 65 -130 -20 -168 -262 -168 -282 0 -10 78 60 153 141 153 27 0 54
-8 76 -23z"/>
<path d="M2245 1800 c-3 -6 0 -12 7 -15 26 -10 1253 0 1251 10 -4 14 -1249 19
-1258 5z"/>
<path d="M2247 1614 c-4 -4 -4 -11 -1 -15 3 -5 180 -9 395 -9 339 0 389 2 389
15 0 13 -50 15 -388 15 -214 0 -392 -3 -395 -6z"/>
<path d="M1812 1329 c-117 -58 -126 -230 -15 -305 89 -60 219 -23 259 73 66
157 -92 307 -244 232z m173 -50 c119 -104 17 -286 -135 -240 -106 32 -130 165
-44 241 30 25 43 30 89 30 46 0 59 -4 90 -31z"/>
<path d="M2245 1270 c-3 -6 0 -12 7 -15 26 -10 1253 0 1251 10 -4 14 -1249 19
-1258 5z"/>
<path d="M2245 1080 c-3 -6 0 -12 7 -15 7 -3 184 -4 392 -3 293 2 380 6 384
16 5 16 -773 18 -783 2z"/>
<path d="M1812 804 c-54 -28 -85 -77 -90 -144 -8 -109 52 -180 158 -188 109
-8 180 52 188 158 5 70 -15 119 -66 158 -44 34 -139 42 -190 16z m148 -36 c36
-18 49 -32 64 -70 17 -41 18 -52 7 -89 -16 -52 -47 -84 -99 -100 -116 -34
-221 95 -164 201 19 36 89 80 127 80 11 0 41 -10 65 -22z"/>
<path d="M2244 559 c-3 -6 0 -15 7 -20 8 -5 185 -8 394 -6 330 2 380 4 380 17
0 13 -51 15 -387 18 -278 1 -389 -1 -394 -9z"/>
<path d="M4360 1133 c-8 -3 -97 -87 -197 -186 l-182 -181 -80 77 c-67 66 -84
77 -113 77 -55 0 -100 -57 -84 -107 3 -11 59 -72 124 -136 105 -103 123 -117
153 -117 30 0 54 21 261 228 201 201 228 231 228 259 0 54 -63 104 -110 86z
m65 -57 c12 -18 14 -30 6 -43 -16 -31 -436 -443 -451 -443 -21 0 -240 221
-240 244 0 24 28 56 48 56 8 0 55 -39 103 -87 l89 -87 193 192 c202 202 222
215 252 168z"/>
<path d="M4347 4662 c-38 -39 -47 -62 -24 -62 16 0 87 72 87 88 0 23 -26 12
-63 -26z"/>
<path d="M4470 4687 c0 -7 18 -31 40 -52 29 -28 43 -36 51 -28 8 8 1 22 -26
52 -37 41 -65 53 -65 28z"/>
<path d="M4315 4540 c-8 -13 61 -90 82 -90 22 0 15 14 -31 59 -29 29 -46 39
-51 31z"/>
<path d="M4507 4512 c-38 -39 -47 -62 -24 -62 19 0 90 77 83 89 -11 17 -20 13
-59 -27z"/>
<path d="M1030 4520 c-214 -26 -403 -187 -471 -400 -25 -79 -29 -208 -10 -301
11 -51 12 -81 3 -140 -6 -42 -7 -78 -2 -83 16 -16 30 5 30 43 0 21 3 41 7 44
3 4 22 -17 41 -46 165 -244 472 -325 742 -195 86 41 203 158 247 248 61 123
79 265 49 392 -13 57 -13 57 11 60 35 4 30 22 -9 32 -28 7 -40 19 -62 62 -40
76 -140 173 -222 216 -117 61 -227 82 -354 68z m215 -45 c190 -50 343 -209
390 -406 56 -238 -67 -492 -290 -599 -130 -63 -236 -74 -369 -40 -101 26 -177
69 -251 144 -105 107 -155 231 -155 384 0 239 167 453 403 517 70 18 199 19
272 0z"/>
<path d="M1092 4383 c2 -21 8 -38 13 -38 6 0 11 17 13 38 3 29 0 37 -13 37
-13 0 -16 -8 -13 -37z"/>
<path d="M775 4279 c-8 -12 23 -49 42 -49 19 0 16 24 -5 43 -22 20 -28 21 -37
6z"/>
<path d="M1402 4267 c-25 -27 -28 -37 -9 -37 16 0 47 32 47 48 0 19 -14 14
-38 -11z"/>
<path d="M1097 4243 c-4 -3 -7 -50 -7 -104 l0 -97 -36 -36 c-35 -35 -37 -35
-126 -38 -62 -2 -93 -7 -96 -15 -3 -10 20 -13 91 -13 95 0 96 0 117 -30 12
-16 32 -33 46 -36 57 -14 114 43 100 100 -3 14 -20 34 -36 46 l-30 21 0 105
c0 95 -5 116 -23 97z m34 -253 c21 -12 25 -50 7 -68 -21 -21 -57 -14 -70 14
-11 23 -10 29 11 45 27 22 27 22 52 9z"/>
<path d="M640 3955 c0 -10 11 -15 35 -15 24 0 35 5 35 15 0 10 -11 15 -35 15
-24 0 -35 -5 -35 -15z"/>
<path d="M1507 3964 c-16 -17 -5 -25 31 -22 20 2 37 8 37 13 0 12 -57 19 -68
9z"/>
<path d="M792 3657 c-25 -27 -28 -37 -9 -37 17 0 59 44 50 53 -11 11 -18 8
-41 -16z"/>
<path d="M1380 3667 c0 -16 32 -47 48 -47 18 0 14 25 -6 43 -22 20 -42 22 -42
4z"/>
<path d="M1094 3546 c-8 -21 -1 -61 11 -61 6 0 11 17 13 38 3 37 -13 52 -24
23z"/>
<path d="M1860 4125 c0 -8 12 -17 28 -21 15 -3 59 -14 99 -24 61 -15 74 -16
84 -4 14 17 14 17 -101 44 -102 24 -110 24 -110 5z"/>
<path d="M2230 4047 c0 -12 17 -17 68 -23 101 -11 145 -10 149 3 6 15 -16 20
-124 28 -80 6 -93 5 -93 -8z"/>
<path d="M192 3927 c-47 -47 -51 -57 -24 -57 20 0 82 59 82 77 0 26 -19 20
-58 -20z"/>
<path d="M315 3960 c-8 -13 61 -90 82 -90 22 0 15 14 -31 59 -29 29 -46 39
-51 31z"/>
<path d="M155 3800 c-7 -12 63 -90 81 -90 25 0 15 25 -24 63 -40 39 -47 43
-57 27z"/>
<path d="M347 3772 c-38 -39 -47 -62 -24 -62 16 0 87 72 87 88 0 23 -26 12
-63 -26z"/>
<path d="M1990 3733 c-54 -21 -82 -89 -60 -144 17 -41 47 -59 98 -59 92 0 136
102 75 170 -28 31 -81 46 -113 33z m90 -55 c27 -29 25 -64 -5 -93 -45 -46
-118 -19 -118 43 0 66 78 98 123 50z"/>
<path d="M544 3344 c8 -96 21 -143 37 -127 6 6 5 45 -2 111 -9 79 -15 102 -27
102 -12 0 -14 -13 -8 -86z"/>
<path d="M607 3054 c-6 -6 33 -115 59 -165 16 -32 51 -42 39 -11 -68 180 -77
196 -98 176z"/>
<path d="M775 2720 c-13 -21 102 -170 131 -170 22 0 17 11 -42 85 -76 96 -80
99 -89 85z"/>
<path d="M4755 2563 c3 -27 9 -75 13 -107 4 -37 12 -61 21 -64 12 -4 13 11 7
91 -7 108 -12 127 -32 127 -12 0 -13 -10 -9 -47z"/>
<path d="M1024 2438 c-8 -12 19 -37 109 -99 49 -34 58 -38 64 -23 4 10 0 20
-11 26 -9 5 -46 32 -82 59 -72 55 -70 53 -80 37z"/>
<path d="M469 2281 c-32 -32 -38 -79 -18 -125 12 -25 63 -56 94 -56 29 0 74
30 90 60 39 74 -8 149 -93 150 -35 0 -49 -6 -73 -29z m111 -11 c10 -5 22 -23
28 -39 13 -36 -3 -71 -41 -89 -45 -22 -97 15 -97 67 0 51 63 86 110 61z"/>
<path d="M4782 2227 c-5 -6 -12 -56 -16 -109 -5 -82 -4 -98 8 -98 15 0 19 18
31 147 6 60 -3 85 -23 60z"/>
<path d="M4114 2119 c-3 -6 12 -30 34 -52 l41 -42 -41 -43 c-30 -32 -37 -47
-29 -55 8 -8 22 0 54 31 l43 42 39 -40 c39 -40 65 -51 65 -27 0 7 -16 28 -35
47 -19 19 -35 39 -35 45 0 6 16 26 35 45 35 34 45 60 23 60 -7 0 -31 -18 -53
-40 l-41 -40 -39 40 c-41 42 -50 46 -61 29z"/>
<path d="M4725 1848 c-21 -55 -51 -189 -44 -194 18 -10 27 7 49 88 12 46 24
91 26 101 6 20 -24 25 -31 5z"/>
</g>
</svg>
